<mxfile host="app.diagrams.net" modified="2024-05-13T10:56:40.371Z" agent="Mozilla/5.0 (Windows NT 10.0; Win64; x64) AppleWebKit/537.36 (KHTML, like Gecko) Chrome/124.0.0.0 Safari/537.36 Edg/124.0.0.0" etag="AvQ1Bx3EU6CZYEv_QE-m" version="24.4.0" type="device">
  <diagram name="第 1 页" id="kLrE7vMGJf4Mw1n5txUj">
    <mxGraphModel dx="1731" dy="1272" grid="0" gridSize="10" guides="1" tooltips="1" connect="1" arrows="1" fold="1" page="0" pageScale="1" pageWidth="827" pageHeight="1169" math="0" shadow="0">
      <root>
        <mxCell id="0" />
        <mxCell id="1" parent="0" />
        <mxCell id="sjZRhqvcs0rzp3M44oA--1" value="image" style="rounded=0;whiteSpace=wrap;html=1;fillColor=#ffcd28;gradientColor=#ffa500;strokeColor=#d79b00;" vertex="1" parent="1">
          <mxGeometry x="-141" y="-65" width="83" height="43" as="geometry" />
        </mxCell>
        <mxCell id="sjZRhqvcs0rzp3M44oA--3" value="mask" style="rounded=0;whiteSpace=wrap;html=1;fillColor=#f5f5f5;strokeColor=#666666;gradientColor=#b3b3b3;" vertex="1" parent="1">
          <mxGeometry x="-38" y="-65" width="83" height="43" as="geometry" />
        </mxCell>
        <mxCell id="sjZRhqvcs0rzp3M44oA--4" value="padding" style="rounded=0;whiteSpace=wrap;html=1;fillColor=#b1ddf0;strokeColor=#10739e;" vertex="1" parent="1">
          <mxGeometry x="-379" y="457" width="297.5" height="36" as="geometry" />
        </mxCell>
        <mxCell id="sjZRhqvcs0rzp3M44oA--6" value="image" style="rounded=0;whiteSpace=wrap;html=1;fillColor=#ffcd28;gradientColor=#ffa500;strokeColor=#d79b00;" vertex="1" parent="1">
          <mxGeometry x="-375.5" y="512" width="83" height="43" as="geometry" />
        </mxCell>
        <mxCell id="sjZRhqvcs0rzp3M44oA--7" value="mask" style="rounded=0;whiteSpace=wrap;html=1;fillColor=#bac8d3;strokeColor=#23445d;" vertex="1" parent="1">
          <mxGeometry x="-272.5" y="512" width="83" height="43" as="geometry" />
        </mxCell>
        <mxCell id="sjZRhqvcs0rzp3M44oA--8" value="edge mask" style="rounded=0;whiteSpace=wrap;html=1;fillColor=#bac8d3;strokeColor=#23445d;" vertex="1" parent="1">
          <mxGeometry x="-164.5" y="512" width="83" height="43" as="geometry" />
        </mxCell>
        <mxCell id="sjZRhqvcs0rzp3M44oA--9" value="common augmentation（只改image）" style="rounded=0;whiteSpace=wrap;html=1;fillColor=#b1ddf0;strokeColor=#10739e;" vertex="1" parent="1">
          <mxGeometry x="-141" y="-1" width="183" height="36" as="geometry" />
        </mxCell>
        <mxCell id="sjZRhqvcs0rzp3M44oA--10" value="image" style="rounded=0;whiteSpace=wrap;html=1;fillColor=#ffcd28;gradientColor=#ffa500;strokeColor=#d79b00;" vertex="1" parent="1">
          <mxGeometry x="-141" y="61" width="83" height="43" as="geometry" />
        </mxCell>
        <mxCell id="sjZRhqvcs0rzp3M44oA--11" value="mask" style="rounded=0;whiteSpace=wrap;html=1;fillColor=#f5f5f5;strokeColor=#666666;gradientColor=#b3b3b3;" vertex="1" parent="1">
          <mxGeometry x="-38" y="61" width="83" height="43" as="geometry" />
        </mxCell>
        <mxCell id="sjZRhqvcs0rzp3M44oA--12" value="iml_transforms 会修改mask" style="rounded=0;whiteSpace=wrap;html=1;fillColor=#b1ddf0;strokeColor=#10739e;" vertex="1" parent="1">
          <mxGeometry x="-141" y="130" width="186" height="36" as="geometry" />
        </mxCell>
        <mxCell id="sjZRhqvcs0rzp3M44oA--13" value="image" style="rounded=0;whiteSpace=wrap;html=1;fillColor=#ffcd28;gradientColor=#ffa500;strokeColor=#d79b00;" vertex="1" parent="1">
          <mxGeometry x="-141" y="194" width="83" height="43" as="geometry" />
        </mxCell>
        <mxCell id="sjZRhqvcs0rzp3M44oA--14" value="mask" style="rounded=0;whiteSpace=wrap;html=1;fillColor=#bac8d3;strokeColor=#23445d;" vertex="1" parent="1">
          <mxGeometry x="-38" y="194" width="83" height="43" as="geometry" />
        </mxCell>
        <mxCell id="sjZRhqvcs0rzp3M44oA--15" value="edge mask generation&lt;div&gt;因为可能会受到IML transform影响，所以必须在线进行&lt;/div&gt;" style="rounded=0;whiteSpace=wrap;html=1;fillColor=#b1ddf0;strokeColor=#10739e;" vertex="1" parent="1">
          <mxGeometry x="-194.5" y="267" width="287" height="36" as="geometry" />
        </mxCell>
        <mxCell id="sjZRhqvcs0rzp3M44oA--16" value="image" style="rounded=0;whiteSpace=wrap;html=1;fillColor=#ffcd28;gradientColor=#ffa500;strokeColor=#d79b00;" vertex="1" parent="1">
          <mxGeometry x="-194.5" y="327" width="83" height="43" as="geometry" />
        </mxCell>
        <mxCell id="sjZRhqvcs0rzp3M44oA--25" style="edgeStyle=orthogonalEdgeStyle;rounded=0;orthogonalLoop=1;jettySize=auto;html=1;entryX=0.5;entryY=0;entryDx=0;entryDy=0;fontSize=12;startSize=8;endSize=8;" edge="1" parent="1" source="sjZRhqvcs0rzp3M44oA--17" target="sjZRhqvcs0rzp3M44oA--20">
          <mxGeometry relative="1" as="geometry">
            <Array as="points">
              <mxPoint x="-50" y="415" />
              <mxPoint x="172" y="415" />
            </Array>
          </mxGeometry>
        </mxCell>
        <mxCell id="sjZRhqvcs0rzp3M44oA--17" value="mask" style="rounded=0;whiteSpace=wrap;html=1;fillColor=#bac8d3;strokeColor=#23445d;" vertex="1" parent="1">
          <mxGeometry x="-91.5" y="327" width="83" height="43" as="geometry" />
        </mxCell>
        <mxCell id="sjZRhqvcs0rzp3M44oA--18" value="edge mask" style="rounded=0;whiteSpace=wrap;html=1;fillColor=#bac8d3;strokeColor=#23445d;" vertex="1" parent="1">
          <mxGeometry x="12.5" y="327" width="83" height="43" as="geometry" />
        </mxCell>
        <mxCell id="sjZRhqvcs0rzp3M44oA--20" value="resize" style="rounded=0;whiteSpace=wrap;html=1;fillColor=#b1ddf0;strokeColor=#10739e;" vertex="1" parent="1">
          <mxGeometry x="23.25" y="457" width="297.5" height="36" as="geometry" />
        </mxCell>
        <mxCell id="sjZRhqvcs0rzp3M44oA--21" value="image" style="rounded=0;whiteSpace=wrap;html=1;fillColor=#ffcd28;gradientColor=#ffa500;strokeColor=#d79b00;" vertex="1" parent="1">
          <mxGeometry x="26.75" y="512" width="83" height="43" as="geometry" />
        </mxCell>
        <mxCell id="sjZRhqvcs0rzp3M44oA--22" value="mask" style="rounded=0;whiteSpace=wrap;html=1;fillColor=#bac8d3;strokeColor=#23445d;" vertex="1" parent="1">
          <mxGeometry x="129.75" y="512" width="83" height="43" as="geometry" />
        </mxCell>
        <mxCell id="sjZRhqvcs0rzp3M44oA--23" value="edge mask" style="rounded=0;whiteSpace=wrap;html=1;fillColor=#bac8d3;strokeColor=#23445d;" vertex="1" parent="1">
          <mxGeometry x="237.75" y="512" width="83" height="43" as="geometry" />
        </mxCell>
        <mxCell id="sjZRhqvcs0rzp3M44oA--24" style="edgeStyle=orthogonalEdgeStyle;rounded=0;orthogonalLoop=1;jettySize=auto;html=1;entryX=0.471;entryY=0.04;entryDx=0;entryDy=0;entryPerimeter=0;fontSize=12;startSize=8;endSize=8;" edge="1" parent="1" source="sjZRhqvcs0rzp3M44oA--17" target="sjZRhqvcs0rzp3M44oA--4">
          <mxGeometry relative="1" as="geometry" />
        </mxCell>
      </root>
    </mxGraphModel>
  </diagram>
</mxfile>
